<?xml version="1.0" encoding="UTF-8" standalone="no"?>
<!DOCTYPE svg PUBLIC "-//W3C//DTD SVG 1.1//EN" "http://www.w3.org/Graphics/SVG/1.1/DTD/svg11.dtd">
<svg width="100%" height="100%" viewBox="0 0 250 250" version="1.1" style="fill-rule:evenodd;clip-rule:evenodd;stroke-linejoin:round;stroke-miterlimit:2;">
    <g transform="matrix(0.715966,0,0,0.715966,35.5042,35.5042)">
        <g transform="matrix(0.725257,0,0,0.725257,-12.7256,34.3429)">
            <path d="M381.484,9.533L381.484,240.467L125,240.467L-1.686,125L125,9.533L381.484,9.533ZM350.762,23.521L140.978,23.521L33.796,125L140.978,226.479C173.525,226.479 350.762,226.479 350.762,226.479L350.762,23.521Z"/>
        </g>
        <g transform="matrix(2.56537,0,0,2.56537,-317.128,-143.415)">
            <path d="M181.169,107.197L189.419,119.547C190.519,121.147 191.069,122.097 192.519,124.597L202.8,124.597C200.35,121.497 197.791,119.897 196.841,118.547L185.935,104.497L195.641,92.047C197.141,89.947 199.75,88.297 201.15,86.597L190.969,86.597C190.419,87.947 189.969,88.697 188.219,91.347L181.319,101.897L174.169,91.347C172.819,89.397 171.969,87.947 171.369,86.597L161.238,86.597C162.788,88.547 165.297,90.097 166.697,91.997L176.454,104.497L165.497,118.647C164.447,120.097 162.438,121.047 159.688,124.597L169.919,124.597C170.769,122.947 171.719,121.347 172.919,119.497L181.169,107.197Z" style="fill-rule:nonzero;"/>
        </g>
    </g>
</svg>
