<?xml version="1.0" encoding="UTF-8" standalone="no"?>
<!DOCTYPE svg PUBLIC "-//W3C//DTD SVG 1.1//EN" "http://www.w3.org/Graphics/SVG/1.1/DTD/svg11.dtd">
<svg width="100%" height="100%" viewBox="0 0 250 250" version="1.1" style="fill-rule:evenodd;clip-rule:evenodd;stroke-linejoin:round;stroke-miterlimit:2;">
    <g>
        <path d="M95.958,101.042L95,101.042L95,98.958L155,98.958L155,101.042L154.042,101.042L154.042,120.958L250,120.958L250,123.042L150,123.042L148.958,122L148.958,101.042L101.042,101.042L101.042,122L100,123.042L-0,123.042L0,120.958C0,120.958 95.958,120.958 95.958,120.958L95.958,101.042Z"/>
        <g transform="matrix(-1,-1.22465e-16,1.22465e-16,-1,250,250)">
            <path d="M148.958,101.042L101.042,101.042L101.042,122L100,123.042L0,123.042L0,120.958C0,120.958 95.958,120.958 95.958,120.958L95.958,101.042L95,101.042L95,98.958L155,98.958L155,101.042L154.042,101.042L154.042,120.958L250,120.958L250,123.042L150,123.042L148.958,122L148.958,101.042Z"/>
        </g>
    </g>
</svg>
